<?xml version="1.0" encoding="utf-8" standalone="no"?>
<!DOCTYPE svg PUBLIC "-//W3C//DTD SVG 1.1//EN"
  "http://www.w3.org/Graphics/SVG/1.1/DTD/svg11.dtd">
<svg xmlns:xlink="http://www.w3.org/1999/xlink" width="720pt" height="360pt" viewBox="0 0 720 360" xmlns="http://www.w3.org/2000/svg" version="1.1">
 <metadata>
  <rdf:RDF xmlns:dc="http://purl.org/dc/elements/1.1/" xmlns:cc="http://creativecommons.org/ns#" xmlns:rdf="http://www.w3.org/1999/02/22-rdf-syntax-ns#">
   <cc:Work>
    <dc:type rdf:resource="http://purl.org/dc/dcmitype/StillImage"/>
    <dc:date>2023-10-10T16:00:32.395527</dc:date>
    <dc:format>image/svg+xml</dc:format>
    <dc:creator>
     <cc:Agent>
      <dc:title>Matplotlib v3.5.1, https://matplotlib.org/</dc:title>
     </cc:Agent>
    </dc:creator>
   </cc:Work>
  </rdf:RDF>
 </metadata>
 <defs>
  <style type="text/css">*{stroke-linejoin: round; stroke-linecap: butt}</style>
 </defs>
 <g id="figure_1">
  <g id="patch_1">
   <path d="M 0 360 
L 720 360 
L 720 0 
L 0 0 
L 0 360 
z
" style="fill: none"/>
  </g>
  <g id="axes_1">
   <g id="patch_2">
    <path d="M 90 315 
L 648 315 
L 648 43.2 
L 90 43.2 
z
" style="fill: #ffffff"/>
   </g>
   <g id="matplotlib.axis_1">
    <g id="xtick_1">
     <g id="line2d_1">
      <defs>
       <path id="m2bf59e837e" d="M 0 0 
L 0 3.5 
" style="stroke: #000000; stroke-width: 0.8"/>
      </defs>
      <g>
       <use xlink:href="#m2bf59e837e" x="115.363636" y="315" style="stroke: #000000; stroke-width: 0.8"/>
      </g>
     </g>
     <g id="text_1">
      <!-- 0 -->
      <g transform="translate(112.182386 329.598437)scale(0.1 -0.1)">
       <defs>
        <path id="DejaVuSans-30" d="M 2034 4250 
Q 1547 4250 1301 3770 
Q 1056 3291 1056 2328 
Q 1056 1369 1301 889 
Q 1547 409 2034 409 
Q 2525 409 2770 889 
Q 3016 1369 3016 2328 
Q 3016 3291 2770 3770 
Q 2525 4250 2034 4250 
z
M 2034 4750 
Q 2819 4750 3233 4129 
Q 3647 3509 3647 2328 
Q 3647 1150 3233 529 
Q 2819 -91 2034 -91 
Q 1250 -91 836 529 
Q 422 1150 422 2328 
Q 422 3509 836 4129 
Q 1250 4750 2034 4750 
z
" transform="scale(0.015625)"/>
       </defs>
       <use xlink:href="#DejaVuSans-30"/>
      </g>
     </g>
    </g>
    <g id="xtick_2">
     <g id="line2d_2">
      <g>
       <use xlink:href="#m2bf59e837e" x="216.818182" y="315" style="stroke: #000000; stroke-width: 0.8"/>
      </g>
     </g>
     <g id="text_2">
      <!-- 100 -->
      <g transform="translate(207.274432 329.598437)scale(0.1 -0.1)">
       <defs>
        <path id="DejaVuSans-31" d="M 794 531 
L 1825 531 
L 1825 4091 
L 703 3866 
L 703 4441 
L 1819 4666 
L 2450 4666 
L 2450 531 
L 3481 531 
L 3481 0 
L 794 0 
L 794 531 
z
" transform="scale(0.015625)"/>
       </defs>
       <use xlink:href="#DejaVuSans-31"/>
       <use xlink:href="#DejaVuSans-30" x="63.623047"/>
       <use xlink:href="#DejaVuSans-30" x="127.246094"/>
      </g>
     </g>
    </g>
    <g id="xtick_3">
     <g id="line2d_3">
      <g>
       <use xlink:href="#m2bf59e837e" x="318.272727" y="315" style="stroke: #000000; stroke-width: 0.8"/>
      </g>
     </g>
     <g id="text_3">
      <!-- 200 -->
      <g transform="translate(308.728977 329.598437)scale(0.1 -0.1)">
       <defs>
        <path id="DejaVuSans-32" d="M 1228 531 
L 3431 531 
L 3431 0 
L 469 0 
L 469 531 
Q 828 903 1448 1529 
Q 2069 2156 2228 2338 
Q 2531 2678 2651 2914 
Q 2772 3150 2772 3378 
Q 2772 3750 2511 3984 
Q 2250 4219 1831 4219 
Q 1534 4219 1204 4116 
Q 875 4013 500 3803 
L 500 4441 
Q 881 4594 1212 4672 
Q 1544 4750 1819 4750 
Q 2544 4750 2975 4387 
Q 3406 4025 3406 3419 
Q 3406 3131 3298 2873 
Q 3191 2616 2906 2266 
Q 2828 2175 2409 1742 
Q 1991 1309 1228 531 
z
" transform="scale(0.015625)"/>
       </defs>
       <use xlink:href="#DejaVuSans-32"/>
       <use xlink:href="#DejaVuSans-30" x="63.623047"/>
       <use xlink:href="#DejaVuSans-30" x="127.246094"/>
      </g>
     </g>
    </g>
    <g id="xtick_4">
     <g id="line2d_4">
      <g>
       <use xlink:href="#m2bf59e837e" x="419.727273" y="315" style="stroke: #000000; stroke-width: 0.8"/>
      </g>
     </g>
     <g id="text_4">
      <!-- 300 -->
      <g transform="translate(410.183523 329.598437)scale(0.1 -0.1)">
       <defs>
        <path id="DejaVuSans-33" d="M 2597 2516 
Q 3050 2419 3304 2112 
Q 3559 1806 3559 1356 
Q 3559 666 3084 287 
Q 2609 -91 1734 -91 
Q 1441 -91 1130 -33 
Q 819 25 488 141 
L 488 750 
Q 750 597 1062 519 
Q 1375 441 1716 441 
Q 2309 441 2620 675 
Q 2931 909 2931 1356 
Q 2931 1769 2642 2001 
Q 2353 2234 1838 2234 
L 1294 2234 
L 1294 2753 
L 1863 2753 
Q 2328 2753 2575 2939 
Q 2822 3125 2822 3475 
Q 2822 3834 2567 4026 
Q 2313 4219 1838 4219 
Q 1578 4219 1281 4162 
Q 984 4106 628 3988 
L 628 4550 
Q 988 4650 1302 4700 
Q 1616 4750 1894 4750 
Q 2613 4750 3031 4423 
Q 3450 4097 3450 3541 
Q 3450 3153 3228 2886 
Q 3006 2619 2597 2516 
z
" transform="scale(0.015625)"/>
       </defs>
       <use xlink:href="#DejaVuSans-33"/>
       <use xlink:href="#DejaVuSans-30" x="63.623047"/>
       <use xlink:href="#DejaVuSans-30" x="127.246094"/>
      </g>
     </g>
    </g>
    <g id="xtick_5">
     <g id="line2d_5">
      <g>
       <use xlink:href="#m2bf59e837e" x="521.181818" y="315" style="stroke: #000000; stroke-width: 0.8"/>
      </g>
     </g>
     <g id="text_5">
      <!-- 400 -->
      <g transform="translate(511.638068 329.598437)scale(0.1 -0.1)">
       <defs>
        <path id="DejaVuSans-34" d="M 2419 4116 
L 825 1625 
L 2419 1625 
L 2419 4116 
z
M 2253 4666 
L 3047 4666 
L 3047 1625 
L 3713 1625 
L 3713 1100 
L 3047 1100 
L 3047 0 
L 2419 0 
L 2419 1100 
L 313 1100 
L 313 1709 
L 2253 4666 
z
" transform="scale(0.015625)"/>
       </defs>
       <use xlink:href="#DejaVuSans-34"/>
       <use xlink:href="#DejaVuSans-30" x="63.623047"/>
       <use xlink:href="#DejaVuSans-30" x="127.246094"/>
      </g>
     </g>
    </g>
    <g id="xtick_6">
     <g id="line2d_6">
      <g>
       <use xlink:href="#m2bf59e837e" x="622.636364" y="315" style="stroke: #000000; stroke-width: 0.8"/>
      </g>
     </g>
     <g id="text_6">
      <!-- 500 -->
      <g transform="translate(613.092614 329.598437)scale(0.1 -0.1)">
       <defs>
        <path id="DejaVuSans-35" d="M 691 4666 
L 3169 4666 
L 3169 4134 
L 1269 4134 
L 1269 2991 
Q 1406 3038 1543 3061 
Q 1681 3084 1819 3084 
Q 2600 3084 3056 2656 
Q 3513 2228 3513 1497 
Q 3513 744 3044 326 
Q 2575 -91 1722 -91 
Q 1428 -91 1123 -41 
Q 819 9 494 109 
L 494 744 
Q 775 591 1075 516 
Q 1375 441 1709 441 
Q 2250 441 2565 725 
Q 2881 1009 2881 1497 
Q 2881 1984 2565 2268 
Q 2250 2553 1709 2553 
Q 1456 2553 1204 2497 
Q 953 2441 691 2322 
L 691 4666 
z
" transform="scale(0.015625)"/>
       </defs>
       <use xlink:href="#DejaVuSans-35"/>
       <use xlink:href="#DejaVuSans-30" x="63.623047"/>
       <use xlink:href="#DejaVuSans-30" x="127.246094"/>
      </g>
     </g>
    </g>
    <g id="text_7">
     <!-- Epochs -->
     <g transform="translate(351.084375 343.276563)scale(0.1 -0.1)">
      <defs>
       <path id="DejaVuSans-45" d="M 628 4666 
L 3578 4666 
L 3578 4134 
L 1259 4134 
L 1259 2753 
L 3481 2753 
L 3481 2222 
L 1259 2222 
L 1259 531 
L 3634 531 
L 3634 0 
L 628 0 
L 628 4666 
z
" transform="scale(0.015625)"/>
       <path id="DejaVuSans-70" d="M 1159 525 
L 1159 -1331 
L 581 -1331 
L 581 3500 
L 1159 3500 
L 1159 2969 
Q 1341 3281 1617 3432 
Q 1894 3584 2278 3584 
Q 2916 3584 3314 3078 
Q 3713 2572 3713 1747 
Q 3713 922 3314 415 
Q 2916 -91 2278 -91 
Q 1894 -91 1617 61 
Q 1341 213 1159 525 
z
M 3116 1747 
Q 3116 2381 2855 2742 
Q 2594 3103 2138 3103 
Q 1681 3103 1420 2742 
Q 1159 2381 1159 1747 
Q 1159 1113 1420 752 
Q 1681 391 2138 391 
Q 2594 391 2855 752 
Q 3116 1113 3116 1747 
z
" transform="scale(0.015625)"/>
       <path id="DejaVuSans-6f" d="M 1959 3097 
Q 1497 3097 1228 2736 
Q 959 2375 959 1747 
Q 959 1119 1226 758 
Q 1494 397 1959 397 
Q 2419 397 2687 759 
Q 2956 1122 2956 1747 
Q 2956 2369 2687 2733 
Q 2419 3097 1959 3097 
z
M 1959 3584 
Q 2709 3584 3137 3096 
Q 3566 2609 3566 1747 
Q 3566 888 3137 398 
Q 2709 -91 1959 -91 
Q 1206 -91 779 398 
Q 353 888 353 1747 
Q 353 2609 779 3096 
Q 1206 3584 1959 3584 
z
" transform="scale(0.015625)"/>
       <path id="DejaVuSans-63" d="M 3122 3366 
L 3122 2828 
Q 2878 2963 2633 3030 
Q 2388 3097 2138 3097 
Q 1578 3097 1268 2742 
Q 959 2388 959 1747 
Q 959 1106 1268 751 
Q 1578 397 2138 397 
Q 2388 397 2633 464 
Q 2878 531 3122 666 
L 3122 134 
Q 2881 22 2623 -34 
Q 2366 -91 2075 -91 
Q 1284 -91 818 406 
Q 353 903 353 1747 
Q 353 2603 823 3093 
Q 1294 3584 2113 3584 
Q 2378 3584 2631 3529 
Q 2884 3475 3122 3366 
z
" transform="scale(0.015625)"/>
       <path id="DejaVuSans-68" d="M 3513 2113 
L 3513 0 
L 2938 0 
L 2938 2094 
Q 2938 2591 2744 2837 
Q 2550 3084 2163 3084 
Q 1697 3084 1428 2787 
Q 1159 2491 1159 1978 
L 1159 0 
L 581 0 
L 581 4863 
L 1159 4863 
L 1159 2956 
Q 1366 3272 1645 3428 
Q 1925 3584 2291 3584 
Q 2894 3584 3203 3211 
Q 3513 2838 3513 2113 
z
" transform="scale(0.015625)"/>
       <path id="DejaVuSans-73" d="M 2834 3397 
L 2834 2853 
Q 2591 2978 2328 3040 
Q 2066 3103 1784 3103 
Q 1356 3103 1142 2972 
Q 928 2841 928 2578 
Q 928 2378 1081 2264 
Q 1234 2150 1697 2047 
L 1894 2003 
Q 2506 1872 2764 1633 
Q 3022 1394 3022 966 
Q 3022 478 2636 193 
Q 2250 -91 1575 -91 
Q 1294 -91 989 -36 
Q 684 19 347 128 
L 347 722 
Q 666 556 975 473 
Q 1284 391 1588 391 
Q 1994 391 2212 530 
Q 2431 669 2431 922 
Q 2431 1156 2273 1281 
Q 2116 1406 1581 1522 
L 1381 1569 
Q 847 1681 609 1914 
Q 372 2147 372 2553 
Q 372 3047 722 3315 
Q 1072 3584 1716 3584 
Q 2034 3584 2315 3537 
Q 2597 3491 2834 3397 
z
" transform="scale(0.015625)"/>
      </defs>
      <use xlink:href="#DejaVuSans-45"/>
      <use xlink:href="#DejaVuSans-70" x="63.183594"/>
      <use xlink:href="#DejaVuSans-6f" x="126.660156"/>
      <use xlink:href="#DejaVuSans-63" x="187.841797"/>
      <use xlink:href="#DejaVuSans-68" x="242.822266"/>
      <use xlink:href="#DejaVuSans-73" x="306.201172"/>
     </g>
    </g>
   </g>
   <g id="matplotlib.axis_2">
    <g id="ytick_1">
     <g id="line2d_7">
      <defs>
       <path id="m5943cd21a2" d="M 0 0 
L -3.5 0 
" style="stroke: #000000; stroke-width: 0.8"/>
      </defs>
      <g>
       <use xlink:href="#m5943cd21a2" x="90" y="314.124343" style="stroke: #000000; stroke-width: 0.8"/>
      </g>
     </g>
     <g id="text_8">
      <!-- 0.9 -->
      <g transform="translate(67.096875 317.923562)scale(0.1 -0.1)">
       <defs>
        <path id="DejaVuSans-2e" d="M 684 794 
L 1344 794 
L 1344 0 
L 684 0 
L 684 794 
z
" transform="scale(0.015625)"/>
        <path id="DejaVuSans-39" d="M 703 97 
L 703 672 
Q 941 559 1184 500 
Q 1428 441 1663 441 
Q 2288 441 2617 861 
Q 2947 1281 2994 2138 
Q 2813 1869 2534 1725 
Q 2256 1581 1919 1581 
Q 1219 1581 811 2004 
Q 403 2428 403 3163 
Q 403 3881 828 4315 
Q 1253 4750 1959 4750 
Q 2769 4750 3195 4129 
Q 3622 3509 3622 2328 
Q 3622 1225 3098 567 
Q 2575 -91 1691 -91 
Q 1453 -91 1209 -44 
Q 966 3 703 97 
z
M 1959 2075 
Q 2384 2075 2632 2365 
Q 2881 2656 2881 3163 
Q 2881 3666 2632 3958 
Q 2384 4250 1959 4250 
Q 1534 4250 1286 3958 
Q 1038 3666 1038 3163 
Q 1038 2656 1286 2365 
Q 1534 2075 1959 2075 
z
" transform="scale(0.015625)"/>
       </defs>
       <use xlink:href="#DejaVuSans-30"/>
       <use xlink:href="#DejaVuSans-2e" x="63.623047"/>
       <use xlink:href="#DejaVuSans-39" x="95.410156"/>
      </g>
     </g>
    </g>
    <g id="ytick_2">
     <g id="line2d_8">
      <g>
       <use xlink:href="#m5943cd21a2" x="90" y="272.046664" style="stroke: #000000; stroke-width: 0.8"/>
      </g>
     </g>
     <g id="text_9">
      <!-- 1.0 -->
      <g transform="translate(67.096875 275.845883)scale(0.1 -0.1)">
       <use xlink:href="#DejaVuSans-31"/>
       <use xlink:href="#DejaVuSans-2e" x="63.623047"/>
       <use xlink:href="#DejaVuSans-30" x="95.410156"/>
      </g>
     </g>
    </g>
    <g id="ytick_3">
     <g id="line2d_9">
      <g>
       <use xlink:href="#m5943cd21a2" x="90" y="229.968984" style="stroke: #000000; stroke-width: 0.8"/>
      </g>
     </g>
     <g id="text_10">
      <!-- 1.1 -->
      <g transform="translate(67.096875 233.768203)scale(0.1 -0.1)">
       <use xlink:href="#DejaVuSans-31"/>
       <use xlink:href="#DejaVuSans-2e" x="63.623047"/>
       <use xlink:href="#DejaVuSans-31" x="95.410156"/>
      </g>
     </g>
    </g>
    <g id="ytick_4">
     <g id="line2d_10">
      <g>
       <use xlink:href="#m5943cd21a2" x="90" y="187.891305" style="stroke: #000000; stroke-width: 0.8"/>
      </g>
     </g>
     <g id="text_11">
      <!-- 1.2 -->
      <g transform="translate(67.096875 191.690523)scale(0.1 -0.1)">
       <use xlink:href="#DejaVuSans-31"/>
       <use xlink:href="#DejaVuSans-2e" x="63.623047"/>
       <use xlink:href="#DejaVuSans-32" x="95.410156"/>
      </g>
     </g>
    </g>
    <g id="ytick_5">
     <g id="line2d_11">
      <g>
       <use xlink:href="#m5943cd21a2" x="90" y="145.813625" style="stroke: #000000; stroke-width: 0.8"/>
      </g>
     </g>
     <g id="text_12">
      <!-- 1.3 -->
      <g transform="translate(67.096875 149.612844)scale(0.1 -0.1)">
       <use xlink:href="#DejaVuSans-31"/>
       <use xlink:href="#DejaVuSans-2e" x="63.623047"/>
       <use xlink:href="#DejaVuSans-33" x="95.410156"/>
      </g>
     </g>
    </g>
    <g id="ytick_6">
     <g id="line2d_12">
      <g>
       <use xlink:href="#m5943cd21a2" x="90" y="103.735946" style="stroke: #000000; stroke-width: 0.8"/>
      </g>
     </g>
     <g id="text_13">
      <!-- 1.4 -->
      <g transform="translate(67.096875 107.535164)scale(0.1 -0.1)">
       <use xlink:href="#DejaVuSans-31"/>
       <use xlink:href="#DejaVuSans-2e" x="63.623047"/>
       <use xlink:href="#DejaVuSans-34" x="95.410156"/>
      </g>
     </g>
    </g>
    <g id="ytick_7">
     <g id="line2d_13">
      <g>
       <use xlink:href="#m5943cd21a2" x="90" y="61.658266" style="stroke: #000000; stroke-width: 0.8"/>
      </g>
     </g>
     <g id="text_14">
      <!-- 1.5 -->
      <g transform="translate(67.096875 65.457485)scale(0.1 -0.1)">
       <use xlink:href="#DejaVuSans-31"/>
       <use xlink:href="#DejaVuSans-2e" x="63.623047"/>
       <use xlink:href="#DejaVuSans-35" x="95.410156"/>
      </g>
     </g>
    </g>
    <g id="text_15">
     <!-- Loss -->
     <g transform="translate(61.017187 190.067187)rotate(-90)scale(0.1 -0.1)">
      <defs>
       <path id="DejaVuSans-4c" d="M 628 4666 
L 1259 4666 
L 1259 531 
L 3531 531 
L 3531 0 
L 628 0 
L 628 4666 
z
" transform="scale(0.015625)"/>
      </defs>
      <use xlink:href="#DejaVuSans-4c"/>
      <use xlink:href="#DejaVuSans-6f" x="53.962891"/>
      <use xlink:href="#DejaVuSans-73" x="115.144531"/>
      <use xlink:href="#DejaVuSans-73" x="167.244141"/>
     </g>
    </g>
   </g>
   <g id="line2d_14">
    <path d="M 115.363636 97.606829 
L 116.378182 186.918273 
L 117.392727 214.945423 
L 118.407273 220.764253 
L 119.421818 223.03452 
L 120.436364 224.353863 
L 121.450909 225.166962 
L 122.465455 225.621478 
L 123.48 226.334291 
L 124.494545 226.466746 
L 125.509091 227.03805 
L 126.523636 228.047081 
L 127.538182 229.268791 
L 128.552727 231.060739 
L 129.567273 234.308816 
L 130.581818 238.317073 
L 131.596364 241.218221 
L 133.625455 245.290402 
L 135.654545 248.636401 
L 138.698182 251.962907 
L 139.712727 252.500435 
L 140.727273 253.179718 
L 141.741818 253.345528 
L 142.756364 254.14136 
L 145.8 255.101451 
L 146.814545 255.206375 
L 147.829091 255.63027 
L 148.843636 256.182697 
L 149.858182 257.810842 
L 150.872727 261.317119 
L 151.887273 262.738734 
L 152.901818 263.786822 
L 153.916364 264.367093 
L 154.930909 265.613762 
L 160.003636 270.400187 
L 162.032727 271.811431 
L 163.047273 272.861015 
L 164.061818 273.213678 
L 165.076364 273.819479 
L 166.090909 274.740723 
L 169.134545 275.797591 
L 170.149091 276.13259 
L 171.163636 276.586517 
L 172.178182 276.707952 
L 173.192727 277.122529 
L 174.207273 277.345179 
L 175.221818 277.729888 
L 178.265455 278.31013 
L 180.294545 278.702635 
L 181.309091 278.93716 
L 182.323636 278.895254 
L 183.338182 278.994504 
L 185.367273 279.712371 
L 187.396364 279.729847 
L 190.44 280.203557 
L 191.454545 280.357991 
L 192.469091 280.634325 
L 198.556364 281.199092 
L 200.585455 281.644368 
L 202.614545 281.710586 
L 203.629091 281.953293 
L 206.672727 282.238707 
L 207.687273 282.373038 
L 210.730909 282.420182 
L 212.76 282.765861 
L 214.789091 282.97799 
L 215.803636 282.994683 
L 216.818182 283.124497 
L 217.832727 283.09909 
L 218.847273 283.329082 
L 221.890909 283.406982 
L 222.905455 283.63185 
L 224.934545 283.698686 
L 226.963636 284.011323 
L 228.992727 283.846449 
L 235.08 284.592125 
L 236.094545 284.512785 
L 238.123636 284.802377 
L 239.138182 285.05556 
L 240.152727 285.010455 
L 248.269091 286.368088 
L 249.283636 286.914826 
L 251.312727 288.598501 
L 252.327273 288.921303 
L 253.341818 289.441304 
L 255.370909 289.867731 
L 257.4 290.330257 
L 258.414545 290.287362 
L 261.458182 290.959866 
L 262.472727 290.781497 
L 264.501818 291.13847 
L 265.516364 291.504545 
L 266.530909 291.643437 
L 267.545455 292.016356 
L 268.56 292.036346 
L 269.574545 292.250471 
L 270.589091 292.140765 
L 271.603636 292.53047 
L 272.618182 292.660679 
L 273.632727 292.651827 
L 275.661818 293.108859 
L 276.676364 292.999156 
L 277.690909 293.303683 
L 278.705455 293.233086 
L 280.734545 293.467715 
L 281.749091 293.644799 
L 282.763636 293.456231 
L 283.778182 293.438255 
L 285.807273 293.818659 
L 289.865455 293.948578 
L 290.88 293.91117 
L 291.894545 294.201849 
L 292.909091 294.069687 
L 293.923636 294.292302 
L 294.938182 294.172691 
L 296.967273 294.267698 
L 297.981818 294.508545 
L 298.996364 294.490601 
L 300.010909 294.290229 
L 301.025455 294.518981 
L 302.04 294.882663 
L 303.054545 294.652138 
L 304.069091 294.764368 
L 305.083636 294.627151 
L 306.098182 294.929528 
L 307.112727 294.843624 
L 308.127273 295.101206 
L 310.156364 294.947629 
L 311.170909 295.115097 
L 312.185455 295.139316 
L 313.2 295.340981 
L 314.214545 295.032203 
L 315.229091 295.302039 
L 317.258182 295.503654 
L 330.447273 296.100815 
L 331.461818 296.376817 
L 333.490909 296.453638 
L 334.505455 296.634003 
L 335.52 296.462161 
L 336.534545 296.648905 
L 339.578182 296.60586 
L 340.592727 296.821635 
L 341.607273 296.848746 
L 342.621818 296.685662 
L 344.650909 296.736799 
L 345.665455 297.039001 
L 346.68 296.879407 
L 349.723636 297.217734 
L 350.738182 297.107205 
L 352.767273 297.424381 
L 354.796364 297.051435 
L 355.810909 297.29754 
L 358.854545 297.403139 
L 359.869091 297.568795 
L 360.883636 297.459829 
L 361.898182 297.674037 
L 362.912727 297.565489 
L 364.941818 297.669653 
L 366.970909 297.663654 
L 367.985455 297.648738 
L 369 297.901025 
L 370.014545 297.921051 
L 371.029091 297.80468 
L 372.043636 298.053867 
L 373.058182 297.855306 
L 375.087273 297.925671 
L 377.116364 297.991455 
L 378.130909 298.119396 
L 379.145455 297.995801 
L 380.16 298.032047 
L 381.174545 298.198477 
L 385.232727 298.32447 
L 386.247273 298.086219 
L 387.261818 298.338197 
L 388.276364 298.2941 
L 389.290909 298.414893 
L 390.305455 298.681105 
L 391.32 298.542155 
L 392.334545 298.753477 
L 393.349091 298.597279 
L 394.363636 298.590087 
L 396.392727 298.799895 
L 398.421818 298.722913 
L 403.494545 298.758455 
L 404.509091 298.989052 
L 406.538182 298.818907 
L 407.552727 299.047915 
L 409.581818 298.873595 
L 410.596364 299.061284 
L 411.610909 298.954881 
L 412.625455 299.214394 
L 413.64 299.002682 
L 415.669091 299.067003 
L 416.683636 299.214574 
L 417.698182 299.249265 
L 419.727273 299.025205 
L 420.741818 299.210118 
L 421.756364 299.222443 
L 422.770909 299.469143 
L 424.8 299.271633 
L 425.814545 299.663463 
L 426.829091 299.531823 
L 427.843636 299.641985 
L 428.858182 299.374649 
L 429.872727 299.585188 
L 430.887273 299.448334 
L 431.901818 299.583267 
L 433.930909 299.468673 
L 434.945455 299.809536 
L 435.96 299.539768 
L 436.974545 299.818487 
L 437.989091 299.475365 
L 439.003636 299.825443 
L 440.018182 299.639204 
L 443.061818 299.684482 
L 444.076364 299.811065 
L 445.090909 299.646928 
L 446.105455 299.629806 
L 447.12 300.055859 
L 448.134545 299.958242 
L 449.149091 300.114031 
L 453.207273 300.094533 
L 454.221818 300.368028 
L 455.236364 300.059542 
L 457.265455 300.285119 
L 458.28 300.399743 
L 459.294545 300.292759 
L 461.323636 300.323496 
L 462.338182 300.560912 
L 463.352727 300.439692 
L 464.367273 300.636216 
L 465.381818 300.392186 
L 467.410909 300.392626 
L 468.425455 300.566033 
L 469.44 300.617446 
L 470.454545 300.498667 
L 472.483636 300.607099 
L 473.498182 300.340211 
L 474.512727 300.83995 
L 475.527273 300.455248 
L 476.541818 300.544508 
L 477.556364 300.755256 
L 479.585455 300.690346 
L 482.629091 300.876626 
L 484.658182 300.711663 
L 485.672727 300.842539 
L 486.687273 300.743909 
L 487.701818 300.924667 
L 488.716364 300.870869 
L 489.730909 300.533852 
L 490.745455 300.444569 
L 491.76 300.785764 
L 492.774545 300.977429 
L 493.789091 300.878384 
L 494.803636 301.089575 
L 495.818182 301.017142 
L 496.832727 301.153932 
L 497.847273 300.886895 
L 498.861818 301.055755 
L 504.949091 301.066743 
L 505.963636 301.020996 
L 506.978182 301.394369 
L 507.992727 301.130652 
L 509.007273 301.238127 
L 510.021818 301.153772 
L 511.036364 301.348058 
L 513.065455 301.223378 
L 514.08 301.36859 
L 515.094545 301.148698 
L 520.167273 301.275206 
L 522.196364 301.326983 
L 524.225455 301.479056 
L 525.24 301.270103 
L 526.254545 301.34579 
L 528.283636 301.037934 
L 529.298182 301.226583 
L 530.312727 301.573943 
L 532.341818 301.43468 
L 533.356364 301.652827 
L 534.370909 301.419344 
L 535.385455 301.453115 
L 536.4 301.185442 
L 539.443636 301.64712 
L 540.458182 301.508316 
L 542.487273 301.705915 
L 543.501818 301.573679 
L 544.516364 301.751236 
L 545.530909 301.613488 
L 546.545455 301.284161 
L 547.56 301.853794 
L 549.589091 301.667598 
L 551.618182 301.89639 
L 552.632727 301.710215 
L 553.647273 301.941821 
L 554.661818 301.799558 
L 555.676364 301.915184 
L 556.690909 301.881381 
L 557.705455 301.718286 
L 558.72 301.895737 
L 559.734545 301.818413 
L 561.763636 301.913183 
L 562.778182 301.924845 
L 563.792727 302.053752 
L 564.807273 301.75911 
L 566.836364 301.973399 
L 567.850909 301.81276 
L 569.88 301.720035 
L 571.909091 301.971794 
L 572.923636 301.863272 
L 573.938182 302.011851 
L 574.952727 301.905423 
L 576.981818 302.059841 
L 577.996364 302.130818 
L 579.010909 302.015053 
L 580.025455 302.105722 
L 581.04 301.988921 
L 582.054545 302.087916 
L 583.069091 301.95235 
L 584.083636 302.125748 
L 586.112727 302.067448 
L 587.127273 302.135112 
L 589.156364 302.135532 
L 593.214545 302.1699 
L 594.229091 302.136221 
L 595.243636 302.287298 
L 597.272727 302.095236 
L 598.287273 302.206012 
L 599.301818 302.05587 
L 600.316364 302.339731 
L 601.330909 302.224758 
L 602.345455 302.424855 
L 606.403636 302.105605 
L 607.418182 302.289781 
L 609.447273 302.442789 
L 611.476364 301.765077 
L 612.490909 302.430506 
L 613.505455 302.246316 
L 614.52 302.516537 
L 615.534545 302.236016 
L 616.549091 302.401385 
L 617.563636 302.346911 
L 618.578182 302.645455 
L 620.607273 302.463388 
L 622.636364 302.464716 
L 622.636364 302.464716 
" clip-path="url(#pdaebc6126f)" style="fill: none; stroke: #1f77b4; stroke-width: 1.5; stroke-linecap: square"/>
   </g>
   <g id="line2d_15">
    <path d="M 115.363636 55.554545 
L 116.378182 133.542831 
L 117.392727 144.738234 
L 118.407273 150.475031 
L 119.421818 151.120857 
L 120.436364 153.265851 
L 121.450909 153.617365 
L 122.465455 154.788081 
L 123.48 156.329273 
L 124.494545 157.546879 
L 125.509091 154.908988 
L 128.552727 159.865508 
L 129.567273 163.991681 
L 130.581818 166.709959 
L 132.610909 173.200292 
L 133.625455 173.298722 
L 134.64 174.697397 
L 135.654545 175.622788 
L 137.683636 179.200687 
L 138.698182 179.519898 
L 139.712727 180.178044 
L 140.727273 179.943197 
L 141.741818 182.020675 
L 142.756364 180.878932 
L 143.770909 182.352923 
L 144.785455 183.166496 
L 146.814545 184.021291 
L 147.829091 185.553018 
L 148.843636 185.061244 
L 149.858182 185.948804 
L 150.872727 193.352815 
L 151.887273 193.711568 
L 152.901818 194.20267 
L 153.916364 194.868365 
L 154.930909 199.06549 
L 155.945455 200.395465 
L 156.96 202.547406 
L 157.974545 203.720239 
L 158.989091 206.240844 
L 160.003636 206.231088 
L 161.018182 207.179488 
L 162.032727 209.748438 
L 163.047273 209.956659 
L 164.061818 208.707482 
L 165.076364 211.440311 
L 166.090909 212.638445 
L 167.105455 213.431693 
L 168.12 212.97265 
L 169.134545 213.018376 
L 170.149091 214.573311 
L 171.163636 214.453468 
L 172.178182 216.982109 
L 173.192727 217.740807 
L 174.207273 216.720908 
L 175.221818 214.493436 
L 176.236364 216.65285 
L 177.250909 217.201065 
L 178.265455 216.408544 
L 179.28 218.320371 
L 180.294545 218.4106 
L 181.309091 218.089889 
L 182.323636 217.992989 
L 183.338182 218.403898 
L 184.352727 218.010685 
L 185.367273 218.2449 
L 186.381818 218.780177 
L 187.396364 219.055699 
L 188.410909 217.396575 
L 189.425455 219.986362 
L 190.44 218.106547 
L 191.454545 220.000853 
L 192.469091 218.175417 
L 193.483636 219.347899 
L 194.498182 219.152775 
L 195.512727 220.017582 
L 196.527273 218.71842 
L 197.541818 220.699143 
L 198.556364 221.767396 
L 199.570909 221.101932 
L 200.585455 219.523712 
L 201.6 219.865736 
L 204.643636 221.719854 
L 205.658182 221.624022 
L 206.672727 221.273195 
L 207.687273 222.044623 
L 208.701818 221.246579 
L 209.716364 220.91239 
L 210.730909 222.440053 
L 211.745455 221.533096 
L 212.76 221.276896 
L 213.774545 222.203792 
L 214.789091 222.772527 
L 215.803636 221.67661 
L 216.818182 220.811342 
L 217.832727 221.70005 
L 218.847273 222.16099 
L 219.861818 221.359646 
L 220.876364 223.970541 
L 221.890909 222.488072 
L 222.905455 221.699047 
L 223.92 222.657303 
L 224.934545 222.325642 
L 225.949091 224.12808 
L 226.963636 223.101289 
L 227.978182 223.910589 
L 228.992727 222.615465 
L 230.007273 223.683547 
L 231.021818 224.069392 
L 232.036364 223.617541 
L 234.065455 223.446629 
L 235.08 222.649433 
L 236.094545 223.965966 
L 237.109091 223.879163 
L 238.123636 223.488202 
L 239.138182 223.818078 
L 240.152727 223.231887 
L 241.167273 224.416402 
L 242.181818 223.470601 
L 243.196364 224.416503 
L 244.210909 223.753431 
L 245.225455 223.361587 
L 246.24 224.273154 
L 247.254545 223.782328 
L 248.269091 223.791051 
L 249.283636 225.459615 
L 250.298182 224.00774 
L 251.312727 223.181641 
L 252.327273 224.928486 
L 253.341818 225.208963 
L 254.356364 225.213292 
L 255.370909 226.88295 
L 256.385455 225.842225 
L 257.4 226.782935 
L 258.414545 225.764054 
L 259.429091 226.100009 
L 260.443636 225.882895 
L 261.458182 225.897205 
L 262.472727 227.013738 
L 263.487273 227.118493 
L 264.501818 226.952281 
L 265.516364 225.962314 
L 266.530909 228.155597 
L 267.545455 227.217345 
L 268.56 228.337629 
L 269.574545 227.547245 
L 270.589091 227.529855 
L 272.618182 228.301719 
L 274.647273 230.00818 
L 275.661818 228.781073 
L 276.676364 227.864229 
L 277.690909 228.391191 
L 278.705455 229.376443 
L 279.72 228.568107 
L 280.734545 228.542555 
L 281.749091 229.58785 
L 282.763636 228.426233 
L 283.778182 230.655561 
L 284.792727 229.361184 
L 285.807273 228.894085 
L 286.821818 231.262599 
L 287.836364 230.605285 
L 288.850909 230.305842 
L 289.865455 231.340513 
L 290.88 230.851353 
L 291.894545 229.659308 
L 292.909091 229.887504 
L 293.923636 230.725395 
L 294.938182 229.875585 
L 295.952727 231.393683 
L 296.967273 230.28493 
L 297.981818 230.586656 
L 298.996364 231.788195 
L 300.010909 230.550159 
L 301.025455 231.083144 
L 302.04 231.046999 
L 303.054545 231.830912 
L 304.069091 231.925971 
L 305.083636 230.678881 
L 307.112727 230.845499 
L 308.127273 230.643889 
L 309.141818 231.543527 
L 310.156364 232.022982 
L 311.170909 231.753755 
L 313.2 231.766742 
L 314.214545 233.0414 
L 315.229091 233.037999 
L 316.243636 231.212604 
L 317.258182 231.45666 
L 318.272727 233.88186 
L 319.287273 232.89449 
L 320.301818 231.582959 
L 321.316364 231.926056 
L 322.330909 232.813351 
L 323.345455 231.282196 
L 324.36 232.790543 
L 325.374545 232.679638 
L 326.389091 230.650314 
L 327.403636 231.590101 
L 328.418182 231.824497 
L 329.432727 232.468141 
L 330.447273 231.710557 
L 331.461818 232.491521 
L 332.476364 233.435241 
L 333.490909 233.646451 
L 334.505455 233.150695 
L 335.52 232.287929 
L 336.534545 232.670032 
L 337.549091 231.704472 
L 338.563636 232.735256 
L 339.578182 232.633716 
L 340.592727 233.385506 
L 341.607273 233.895659 
L 342.621818 232.776513 
L 343.636364 233.177646 
L 344.650909 232.322184 
L 345.665455 232.549195 
L 346.68 232.94453 
L 347.694545 232.187744 
L 348.709091 231.885788 
L 349.723636 234.336896 
L 350.738182 233.215648 
L 351.752727 233.58661 
L 353.781818 232.395654 
L 354.796364 232.865618 
L 355.810909 232.730285 
L 356.825455 231.923679 
L 357.84 232.544922 
L 358.854545 233.603143 
L 359.869091 233.594786 
L 360.883636 233.471411 
L 361.898182 233.501327 
L 362.912727 233.175399 
L 363.927273 232.433796 
L 364.941818 233.822966 
L 365.956364 233.000931 
L 366.970909 233.073804 
L 367.985455 233.434614 
L 369 234.198357 
L 371.029091 233.214494 
L 372.043636 234.999571 
L 373.058182 234.432065 
L 374.072727 234.220664 
L 375.087273 233.556007 
L 377.116364 233.464148 
L 378.130909 234.70082 
L 379.145455 234.189524 
L 380.16 234.404296 
L 381.174545 234.032968 
L 382.189091 236.222579 
L 383.203636 234.957155 
L 384.218182 233.914349 
L 385.232727 234.331268 
L 387.261818 234.218376 
L 388.276364 234.741189 
L 389.290909 234.6758 
L 390.305455 234.072695 
L 391.32 234.379688 
L 392.334545 233.925083 
L 393.349091 234.271842 
L 394.363636 233.923227 
L 395.378182 236.304115 
L 396.392727 235.944715 
L 397.407273 235.704386 
L 398.421818 236.453639 
L 399.436364 234.348061 
L 400.450909 233.764946 
L 401.465455 235.737176 
L 402.48 234.534799 
L 403.494545 235.050328 
L 404.509091 234.392805 
L 405.523636 234.026382 
L 407.552727 235.263165 
L 408.567273 234.103333 
L 409.581818 234.347961 
L 410.596364 235.76797 
L 411.610909 234.614775 
L 412.625455 235.106859 
L 413.64 234.043286 
L 414.654545 235.35873 
L 415.669091 235.179687 
L 416.683636 233.571903 
L 417.698182 234.668853 
L 418.712727 234.992398 
L 419.727273 235.1914 
L 420.741818 235.720964 
L 421.756364 235.943822 
L 422.770909 234.557802 
L 423.785455 234.535581 
L 424.8 235.559894 
L 425.814545 235.469861 
L 426.829091 235.18518 
L 427.843636 235.897996 
L 428.858182 234.879547 
L 429.872727 236.059493 
L 430.887273 235.316646 
L 431.901818 236.907616 
L 432.916364 235.153213 
L 433.930909 235.748548 
L 434.945455 236.031714 
L 435.96 234.773142 
L 436.974545 235.138195 
L 437.989091 236.637512 
L 439.003636 235.863801 
L 440.018182 236.191841 
L 441.032727 235.936735 
L 442.047273 236.800529 
L 443.061818 235.038797 
L 444.076364 236.355901 
L 445.090909 234.337713 
L 446.105455 236.226101 
L 447.12 235.63686 
L 448.134545 236.404331 
L 449.149091 235.72906 
L 450.163636 236.678869 
L 452.192727 235.980545 
L 453.207273 237.339844 
L 454.221818 236.425323 
L 455.236364 237.125719 
L 456.250909 236.511985 
L 457.265455 236.933364 
L 458.28 236.978634 
L 459.294545 236.862532 
L 460.309091 237.995758 
L 461.323636 238.310887 
L 462.338182 236.883685 
L 463.352727 236.906844 
L 464.367273 236.053022 
L 465.381818 237.46353 
L 466.396364 235.813641 
L 467.410909 236.061022 
L 468.425455 237.146235 
L 469.44 237.781538 
L 470.454545 237.052575 
L 471.469091 236.600744 
L 472.483636 236.925373 
L 474.512727 236.133053 
L 475.527273 236.372293 
L 476.541818 236.8885 
L 477.556364 236.628513 
L 478.570909 236.796646 
L 479.585455 236.256212 
L 480.6 236.248487 
L 481.614545 236.458735 
L 482.629091 236.295814 
L 483.643636 238.65408 
L 484.658182 236.647163 
L 485.672727 237.236208 
L 486.687273 237.123061 
L 487.701818 237.928598 
L 488.716364 236.879306 
L 489.730909 235.3619 
L 491.76 238.181648 
L 492.774545 238.127179 
L 494.803636 236.853523 
L 495.818182 237.093561 
L 497.847273 236.932601 
L 498.861818 236.392157 
L 499.876364 236.154256 
L 500.890909 236.94006 
L 501.905455 237.008168 
L 502.92 237.341058 
L 503.934545 238.18854 
L 504.949091 235.949882 
L 505.963636 236.027475 
L 506.978182 236.952766 
L 507.992727 236.071351 
L 509.007273 236.655986 
L 510.021818 237.515602 
L 511.036364 236.188586 
L 512.050909 236.84927 
L 513.065455 236.520999 
L 514.08 237.241796 
L 515.094545 236.995668 
L 516.109091 236.619881 
L 517.123636 237.633349 
L 518.138182 238.288941 
L 519.152727 237.181874 
L 520.167273 236.532145 
L 521.181818 237.347534 
L 522.196364 236.898843 
L 523.210909 238.673482 
L 524.225455 237.858665 
L 525.24 237.618657 
L 526.254545 237.798442 
L 527.269091 236.309844 
L 528.283636 237.383875 
L 529.298182 237.504296 
L 530.312727 238.107145 
L 531.327273 237.573261 
L 532.341818 236.242749 
L 533.356364 237.711193 
L 534.370909 237.77757 
L 535.385455 237.275915 
L 536.4 236.573733 
L 537.414545 237.435837 
L 538.429091 237.049385 
L 539.443636 238.979636 
L 540.458182 237.274325 
L 541.472727 237.368341 
L 542.487273 236.431653 
L 543.501818 236.647765 
L 544.516364 238.220086 
L 545.530909 236.488024 
L 546.545455 236.959628 
L 547.56 238.924751 
L 548.574545 238.41189 
L 549.589091 238.678071 
L 550.603636 237.719279 
L 551.618182 238.843265 
L 552.632727 237.168867 
L 553.647273 237.999621 
L 554.661818 237.257215 
L 555.676364 238.237557 
L 556.690909 237.238982 
L 557.705455 238.316595 
L 558.72 238.339985 
L 559.734545 237.832305 
L 560.749091 239.031156 
L 562.778182 237.204486 
L 563.792727 238.030384 
L 564.807273 237.618867 
L 565.821818 238.08376 
L 566.836364 237.520668 
L 567.850909 238.237131 
L 568.865455 239.721716 
L 569.88 238.015557 
L 570.894545 238.171395 
L 571.909091 238.044835 
L 572.923636 237.359116 
L 573.938182 236.847895 
L 574.952727 236.767508 
L 575.967273 237.798076 
L 576.981818 236.25878 
L 577.996364 237.812642 
L 579.010909 237.376341 
L 580.025455 238.280244 
L 581.04 238.040577 
L 582.054545 237.000248 
L 583.069091 237.910606 
L 584.083636 236.596651 
L 585.098182 237.519374 
L 586.112727 238.929777 
L 587.127273 239.544815 
L 588.141818 236.518898 
L 589.156364 237.067097 
L 590.170909 237.760179 
L 592.2 238.336293 
L 593.214545 237.859783 
L 594.229091 238.778372 
L 595.243636 238.852444 
L 596.258182 239.826998 
L 597.272727 238.484918 
L 598.287273 238.143446 
L 599.301818 238.103212 
L 600.316364 237.5463 
L 601.330909 238.860365 
L 602.345455 237.483228 
L 603.36 238.936734 
L 605.389091 237.675764 
L 606.403636 237.884437 
L 607.418182 239.051868 
L 608.432727 239.035059 
L 609.447273 237.901737 
L 610.461818 237.462196 
L 611.476364 238.043842 
L 612.490909 237.005801 
L 613.505455 237.573542 
L 614.52 237.6337 
L 615.534545 237.118983 
L 616.549091 237.962738 
L 617.563636 237.171556 
L 618.578182 238.272348 
L 619.592727 238.807601 
L 620.607273 239.203934 
L 621.621818 238.412316 
L 622.636364 238.349972 
L 622.636364 238.349972 
" clip-path="url(#pdaebc6126f)" style="fill: none; stroke: #ff7f0e; stroke-width: 1.5; stroke-linecap: square"/>
   </g>
   <g id="patch_3">
    <path d="M 90 315 
L 90 43.2 
" style="fill: none; stroke: #000000; stroke-width: 0.8; stroke-linejoin: miter; stroke-linecap: square"/>
   </g>
   <g id="patch_4">
    <path d="M 648 315 
L 648 43.2 
" style="fill: none; stroke: #000000; stroke-width: 0.8; stroke-linejoin: miter; stroke-linecap: square"/>
   </g>
   <g id="patch_5">
    <path d="M 90 315 
L 648 315 
" style="fill: none; stroke: #000000; stroke-width: 0.8; stroke-linejoin: miter; stroke-linecap: square"/>
   </g>
   <g id="patch_6">
    <path d="M 90 43.2 
L 648 43.2 
" style="fill: none; stroke: #000000; stroke-width: 0.8; stroke-linejoin: miter; stroke-linecap: square"/>
   </g>
   <g id="text_16">
    <!-- Training Loss -->
    <g transform="translate(330.261563 37.2)scale(0.12 -0.12)">
     <defs>
      <path id="DejaVuSans-54" d="M -19 4666 
L 3928 4666 
L 3928 4134 
L 2272 4134 
L 2272 0 
L 1638 0 
L 1638 4134 
L -19 4134 
L -19 4666 
z
" transform="scale(0.015625)"/>
      <path id="DejaVuSans-72" d="M 2631 2963 
Q 2534 3019 2420 3045 
Q 2306 3072 2169 3072 
Q 1681 3072 1420 2755 
Q 1159 2438 1159 1844 
L 1159 0 
L 581 0 
L 581 3500 
L 1159 3500 
L 1159 2956 
Q 1341 3275 1631 3429 
Q 1922 3584 2338 3584 
Q 2397 3584 2469 3576 
Q 2541 3569 2628 3553 
L 2631 2963 
z
" transform="scale(0.015625)"/>
      <path id="DejaVuSans-61" d="M 2194 1759 
Q 1497 1759 1228 1600 
Q 959 1441 959 1056 
Q 959 750 1161 570 
Q 1363 391 1709 391 
Q 2188 391 2477 730 
Q 2766 1069 2766 1631 
L 2766 1759 
L 2194 1759 
z
M 3341 1997 
L 3341 0 
L 2766 0 
L 2766 531 
Q 2569 213 2275 61 
Q 1981 -91 1556 -91 
Q 1019 -91 701 211 
Q 384 513 384 1019 
Q 384 1609 779 1909 
Q 1175 2209 1959 2209 
L 2766 2209 
L 2766 2266 
Q 2766 2663 2505 2880 
Q 2244 3097 1772 3097 
Q 1472 3097 1187 3025 
Q 903 2953 641 2809 
L 641 3341 
Q 956 3463 1253 3523 
Q 1550 3584 1831 3584 
Q 2591 3584 2966 3190 
Q 3341 2797 3341 1997 
z
" transform="scale(0.015625)"/>
      <path id="DejaVuSans-69" d="M 603 3500 
L 1178 3500 
L 1178 0 
L 603 0 
L 603 3500 
z
M 603 4863 
L 1178 4863 
L 1178 4134 
L 603 4134 
L 603 4863 
z
" transform="scale(0.015625)"/>
      <path id="DejaVuSans-6e" d="M 3513 2113 
L 3513 0 
L 2938 0 
L 2938 2094 
Q 2938 2591 2744 2837 
Q 2550 3084 2163 3084 
Q 1697 3084 1428 2787 
Q 1159 2491 1159 1978 
L 1159 0 
L 581 0 
L 581 3500 
L 1159 3500 
L 1159 2956 
Q 1366 3272 1645 3428 
Q 1925 3584 2291 3584 
Q 2894 3584 3203 3211 
Q 3513 2838 3513 2113 
z
" transform="scale(0.015625)"/>
      <path id="DejaVuSans-67" d="M 2906 1791 
Q 2906 2416 2648 2759 
Q 2391 3103 1925 3103 
Q 1463 3103 1205 2759 
Q 947 2416 947 1791 
Q 947 1169 1205 825 
Q 1463 481 1925 481 
Q 2391 481 2648 825 
Q 2906 1169 2906 1791 
z
M 3481 434 
Q 3481 -459 3084 -895 
Q 2688 -1331 1869 -1331 
Q 1566 -1331 1297 -1286 
Q 1028 -1241 775 -1147 
L 775 -588 
Q 1028 -725 1275 -790 
Q 1522 -856 1778 -856 
Q 2344 -856 2625 -561 
Q 2906 -266 2906 331 
L 2906 616 
Q 2728 306 2450 153 
Q 2172 0 1784 0 
Q 1141 0 747 490 
Q 353 981 353 1791 
Q 353 2603 747 3093 
Q 1141 3584 1784 3584 
Q 2172 3584 2450 3431 
Q 2728 3278 2906 2969 
L 2906 3500 
L 3481 3500 
L 3481 434 
z
" transform="scale(0.015625)"/>
      <path id="DejaVuSans-20" transform="scale(0.015625)"/>
     </defs>
     <use xlink:href="#DejaVuSans-54"/>
     <use xlink:href="#DejaVuSans-72" x="46.333984"/>
     <use xlink:href="#DejaVuSans-61" x="87.447266"/>
     <use xlink:href="#DejaVuSans-69" x="148.726562"/>
     <use xlink:href="#DejaVuSans-6e" x="176.509766"/>
     <use xlink:href="#DejaVuSans-69" x="239.888672"/>
     <use xlink:href="#DejaVuSans-6e" x="267.671875"/>
     <use xlink:href="#DejaVuSans-67" x="331.050781"/>
     <use xlink:href="#DejaVuSans-20" x="394.527344"/>
     <use xlink:href="#DejaVuSans-4c" x="426.314453"/>
     <use xlink:href="#DejaVuSans-6f" x="480.277344"/>
     <use xlink:href="#DejaVuSans-73" x="541.458984"/>
     <use xlink:href="#DejaVuSans-73" x="593.558594"/>
    </g>
   </g>
   <g id="legend_1">
    <g id="patch_7">
     <path d="M 534.50625 80.55625 
L 641 80.55625 
Q 643 80.55625 643 78.55625 
L 643 50.2 
Q 643 48.2 641 48.2 
L 534.50625 48.2 
Q 532.50625 48.2 532.50625 50.2 
L 532.50625 78.55625 
Q 532.50625 80.55625 534.50625 80.55625 
z
" style="fill: #ffffff; opacity: 0.8; stroke: #cccccc; stroke-linejoin: miter"/>
    </g>
    <g id="line2d_16">
     <path d="M 536.50625 56.298437 
L 546.50625 56.298437 
L 556.50625 56.298437 
" style="fill: none; stroke: #1f77b4; stroke-width: 1.5; stroke-linecap: square"/>
    </g>
    <g id="text_17">
     <!-- Training Loss -->
     <g transform="translate(564.50625 59.798437)scale(0.1 -0.1)">
      <use xlink:href="#DejaVuSans-54"/>
      <use xlink:href="#DejaVuSans-72" x="46.333984"/>
      <use xlink:href="#DejaVuSans-61" x="87.447266"/>
      <use xlink:href="#DejaVuSans-69" x="148.726562"/>
      <use xlink:href="#DejaVuSans-6e" x="176.509766"/>
      <use xlink:href="#DejaVuSans-69" x="239.888672"/>
      <use xlink:href="#DejaVuSans-6e" x="267.671875"/>
      <use xlink:href="#DejaVuSans-67" x="331.050781"/>
      <use xlink:href="#DejaVuSans-20" x="394.527344"/>
      <use xlink:href="#DejaVuSans-4c" x="426.314453"/>
      <use xlink:href="#DejaVuSans-6f" x="480.277344"/>
      <use xlink:href="#DejaVuSans-73" x="541.458984"/>
      <use xlink:href="#DejaVuSans-73" x="593.558594"/>
     </g>
    </g>
    <g id="line2d_17">
     <path d="M 536.50625 70.976562 
L 546.50625 70.976562 
L 556.50625 70.976562 
" style="fill: none; stroke: #ff7f0e; stroke-width: 1.5; stroke-linecap: square"/>
    </g>
    <g id="text_18">
     <!-- Validation Loss -->
     <g transform="translate(564.50625 74.476562)scale(0.1 -0.1)">
      <defs>
       <path id="DejaVuSans-56" d="M 1831 0 
L 50 4666 
L 709 4666 
L 2188 738 
L 3669 4666 
L 4325 4666 
L 2547 0 
L 1831 0 
z
" transform="scale(0.015625)"/>
       <path id="DejaVuSans-6c" d="M 603 4863 
L 1178 4863 
L 1178 0 
L 603 0 
L 603 4863 
z
" transform="scale(0.015625)"/>
       <path id="DejaVuSans-64" d="M 2906 2969 
L 2906 4863 
L 3481 4863 
L 3481 0 
L 2906 0 
L 2906 525 
Q 2725 213 2448 61 
Q 2172 -91 1784 -91 
Q 1150 -91 751 415 
Q 353 922 353 1747 
Q 353 2572 751 3078 
Q 1150 3584 1784 3584 
Q 2172 3584 2448 3432 
Q 2725 3281 2906 2969 
z
M 947 1747 
Q 947 1113 1208 752 
Q 1469 391 1925 391 
Q 2381 391 2643 752 
Q 2906 1113 2906 1747 
Q 2906 2381 2643 2742 
Q 2381 3103 1925 3103 
Q 1469 3103 1208 2742 
Q 947 2381 947 1747 
z
" transform="scale(0.015625)"/>
       <path id="DejaVuSans-74" d="M 1172 4494 
L 1172 3500 
L 2356 3500 
L 2356 3053 
L 1172 3053 
L 1172 1153 
Q 1172 725 1289 603 
Q 1406 481 1766 481 
L 2356 481 
L 2356 0 
L 1766 0 
Q 1100 0 847 248 
Q 594 497 594 1153 
L 594 3053 
L 172 3053 
L 172 3500 
L 594 3500 
L 594 4494 
L 1172 4494 
z
" transform="scale(0.015625)"/>
      </defs>
      <use xlink:href="#DejaVuSans-56"/>
      <use xlink:href="#DejaVuSans-61" x="60.658203"/>
      <use xlink:href="#DejaVuSans-6c" x="121.9375"/>
      <use xlink:href="#DejaVuSans-69" x="149.720703"/>
      <use xlink:href="#DejaVuSans-64" x="177.503906"/>
      <use xlink:href="#DejaVuSans-61" x="240.980469"/>
      <use xlink:href="#DejaVuSans-74" x="302.259766"/>
      <use xlink:href="#DejaVuSans-69" x="341.46875"/>
      <use xlink:href="#DejaVuSans-6f" x="369.251953"/>
      <use xlink:href="#DejaVuSans-6e" x="430.433594"/>
      <use xlink:href="#DejaVuSans-20" x="493.8125"/>
      <use xlink:href="#DejaVuSans-4c" x="525.599609"/>
      <use xlink:href="#DejaVuSans-6f" x="579.5625"/>
      <use xlink:href="#DejaVuSans-73" x="640.744141"/>
      <use xlink:href="#DejaVuSans-73" x="692.84375"/>
     </g>
    </g>
   </g>
  </g>
 </g>
 <defs>
  <clipPath id="pdaebc6126f">
   <rect x="90" y="43.2" width="558" height="271.8"/>
  </clipPath>
 </defs>
</svg>
